<?xml version="1.0" encoding="utf-8"?>
<!-- Generator: Adobe Illustrator 28.1.0, SVG Export Plug-In . SVG Version: 6.00 Build 0)  -->
<svg version="1.1" id="Layer_1" xmlns="http://www.w3.org/2000/svg" xmlns:xlink="http://www.w3.org/1999/xlink" x="0px" y="0px"
	 viewBox="0 0 792 302" style="enable-background:new 0 0 792 302;" xml:space="preserve">
<style type="text/css">
	.st0{fill:#FFFFFF;}
</style>
<g>
	<g>
		<path class="st0" d="M314.4,90.2L299.5,83c0,0,7.6-22.7,28.7-22.7c26.7,0,30.2,17.6,30.2,27.4c0,18.2-27.5,36.4-27.5,36.4h28.9
			v15.6h-60.7v-4.4c0,0,40.1-33.1,40.1-47.5c0-2.8-0.7-12.4-11-12.4C319.7,75.4,314.4,90.2,314.4,90.2z"/>
		<path class="st0" d="M368.4,80h9.7v3h0.1c2.2-2.2,5-3.8,8.1-3.8c5.2,0,12.4,2.6,12.4,10.5v18.6H389v-16c0-2.8-1.9-5.5-5.1-5.5
			c-2.9,0-5.8,2.7-5.8,5.5v16h-9.7V80z"/>
		<path class="st0" d="M416.8,79.1c3.8,0,6.9,1.3,9.2,3.5V60.9h9.7v47.4h-9.6V105H426c-2.1,2.3-5.4,4-9.2,4c-8.3,0-14-6.7-14-14.9
			S408.5,79.1,416.8,79.1z M419.7,100.7c3.8,0,6.6-2.8,6.6-6.6c0-3.9-2.9-6.7-6.6-6.7s-6.6,2.8-6.6,6.7
			C413.1,98,415.7,100.7,419.7,100.7z"/>
		<path class="st0" d="M530.8,139.7h-19.1l-5.8-15.6h-29.6l-5.8,15.6h-19.1l31.4-77.9h16.4L530.8,139.7z M491.2,85.8H491l-8.7,22.7
			h17.6L491.2,85.8z"/>
		<path class="st0" d="M533.8,58.5h16.7v81.2h-16.7V58.5z"/>
		<path class="st0" d="M582.4,89.8c6.5,0,11.9,2.2,15.9,6v-4.6H615v48.4h-16.5v-5.5h-0.2c-3.6,4-9.3,6.9-15.9,6.9
			c-14.2,0-24.1-11.4-24.1-25.6C558.4,101.3,568.3,89.8,582.4,89.8z M587.4,126.8c6.5,0,11.2-4.7,11.2-11.3c0-6.7-5-11.4-11.2-11.4
			c-6.3,0-11.3,4.7-11.3,11.4C576.1,122.1,580.6,126.8,587.4,126.8z"/>
		<path class="st0" d="M626.4,91.2h16.7v7h0.2c0,0,5.3-8.4,14.8-8.4c6.2,0,10.6,3,10.6,3l-7,14.2c0,0-3.1-2.6-8.7-2.6
			c-8.7,0-9.9,8.6-9.9,9.8v25.5h-16.7L626.4,91.2L626.4,91.2z"/>
		<path class="st0" d="M673.4,91.2h16.7v5.1h0.2c3.8-3.8,8.6-6.5,13.9-6.5c6.4,0,13.5,2.4,16.9,8.9c5.1-6.1,10.8-8.9,16.1-8.9
			c8.9,0,18.9,4.4,18.9,17.9v31.9h-16.7v-27.4c0-4.8-2.6-9.1-8.5-9.1c-5.3,0-7.6,3.9-7.7,7.6v28.9h-16.7v-27.4
			c0-4.8-2.6-9.1-8.5-9.1c-5.6,0-7.7,4.3-7.7,8.1v28.3h-16.7V91.2H673.4z"/>
		<path class="st0" d="M328.1,162.1c15.2,0,26.6,7.8,26.6,24c0,16.1-11.4,25-26.6,25h-10.7V240h-17.8v-77.9H328.1z M322.4,196.9
			c7,0,13.6-2.4,13.6-10.3c0-8-6.6-10.4-13.6-10.4h-5v20.7H322.4z"/>
		<path class="st0" d="M360.2,191.5h16.7v7h0.2c0,0,5.3-8.4,14.8-8.4c6.2,0,10.6,3,10.6,3l-7,14.2c0,0-3.1-2.6-8.7-2.6
			c-8.7,0-9.9,8.6-9.9,9.8V240h-16.7V191.5z"/>
		<path class="st0" d="M432.3,190.1c16.1,0,28.9,10.6,28.9,25.7c0,14.9-12.2,25.6-28.9,25.6c-17.5,0-29.2-10.7-29.2-25.6
			C403.1,200.7,416,190.1,432.3,190.1z M432.2,227.1c6.5,0,11.2-4.7,11.2-11.3c0-6.7-5-11.4-11.2-11.4c-6.3,0-11.3,4.7-11.3,11.4
			C420.9,222.4,425.4,227.1,432.2,227.1z"/>
		<path class="st0" d="M469.1,191.5h16.7v55.9c0,8.6-4.2,18.5-17.5,18.5c-7.9,0-11-2-13.3-3l5.2-13.5c0,0,2.2,1.4,4.3,1.4
			c2.8,0,4.6-2.1,4.6-6.6L469.1,191.5L469.1,191.5z M477.6,161.6c-5.5,0-9.9,4.4-9.9,9.9s4.4,9.9,9.9,9.9s9.9-4.4,9.9-9.9
			C487.6,166,483.1,161.6,477.6,161.6z"/>
		<path class="st0" d="M511,218.1c0,7.5,6.2,10,10.5,10c5.4,0,7.7-1,11.8-5.4l12.1,6c-5.5,9.2-14.4,12.7-25.1,12.7
			c-14.6,0-26.6-11.5-26.6-25.6c0-14.2,12-25.7,26.6-25.7c14.7,0,26,8.7,26,25.7c0,0.7,0,1.7-0.1,2.3H511z M529.9,208.8
			c-0.8-5.1-4.3-7.8-9.2-7.8c-5.8,0-9,3.4-9.3,7.8H529.9z"/>
		<path class="st0" d="M568.3,215.7c0,6.7,5.2,12,11.5,12c5,0,8.1-2.3,8.1-2.3l5.7,11.6c0,0-5.5,4.3-16.2,4.3
			c-14,0-26.8-11.3-26.8-25.5c0-14.3,12.7-25.8,26.8-25.8c10.8,0,16.2,4.5,16.2,4.5l-5.7,11.4c0,0-3.1-2.3-8.1-2.3
			C573.5,203.8,568.3,209.1,568.3,215.7z"/>
		<path class="st0" d="M602.8,173.5h16.7v18h10.2v12.7h-10.2v15.4c0,4.5,1.1,6.7,3.8,6.7c2.2,0,4.2-1.5,4.2-1.5l4.2,13.5
			c0,0-5.4,3-12.3,3c-13.3,0-16.5-9.9-16.5-18.5v-18.6h-7v-12.7h7v-18L602.8,173.5L602.8,173.5z"/>
	</g>
	<g>
		<path class="st0" d="M156.3,30.7C90,30.7,36,84.6,36,151s54,120.3,120.3,120.3s120.3-54,120.3-120.3
			C276.7,84.6,222.7,30.7,156.3,30.7z M102.5,241.3c7.6-7.1,17-18.3,17.4-27.8c0.1-2.8-10.3-3.2-11.2-0.5
			c-2.3,6.8-2.8,15.2-9.6,26.2c-10-6.5-18.9-14.7-26.2-24.2c0.1-0.2,0.3-0.4,0.4-0.5c1.6-1.9,3.4-3.6,5.4-5.1
			c1.4-1.1,2.5-2.8,3.7-4.6c0.4-0.6,0.8-1.2,1.3-1.9c1.1-1.6,2.3-3.3,2.8-5.2c0.3-0.9,0.2-1.5,0.1-1.6s-0.4-0.2-0.6-0.4
			c-0.4-0.2-0.8-0.4-1.3-0.8c-3.2-2.4-3-6.7-3-8.7c0.1-3.8,0.2-8.2,2-12.2c1.5-3.5,4-6.2,6.3-8.7l11.7-12.8
			c-0.4-0.1-0.8-0.2-1.3-0.4c-1.1-0.5-1.9-1.5-2.5-2.9c-0.9-2.3-0.8-4.6-0.8-6.5c0.1-2.2,0.2-4.6,0.6-6.9c0.2-1.3,0.6-3,1.5-4.5
			c-0.7-0.4-1.5-0.9-2.1-1.6c-0.4-0.5-0.8-1-1-1.4c-0.1-0.2-0.2-0.3-0.3-0.5c-0.6-0.9-1.5-1.5-2.6-1.7c-0.5-0.1-1-0.1-1.6-0.2
			c-0.5,0-1,0-1.6-0.2c-6.1-1.3-15.5-8-16.7-10.6c-0.1-0.3-0.1-0.6-0.2-0.9c-3.6-2.3-8.6-4.6-12.8-6.4c0.5-1.2,1.1-2.4,1.6-3.5
			c5.3,3.2,11.5,7.7,16.4,8c3.8,0.2-8.9-5.4-16.1-8.5c0.2-0.5,0.5-0.9,0.7-1.4c3.2,1.6,7.3,3.4,6.1,2.5c-1.9-1.4-3.8-2.5-5.7-3.4
			c0.2-0.4,0.5-0.9,0.7-1.3c0.8,0.3,1.7,0.6,2.5,0.8c0.9,0.2-0.3-0.6-2.1-1.5c0.3-0.6,0.7-1.2,1.1-1.8c3.2,2.9,10.4,5.6,8.3,4.4
			c-2.2-1.3-5.9-3.9-7.9-5.1c0.2-0.3,0.4-0.6,0.6-0.9c3,2,5.8,3.8,4.7,2.4c-0.9-1.1-2.5-2.3-4.2-3.2c0.2-0.4,0.5-0.8,0.8-1.2
			c2.3,1.8,4.7,2.8,7.1,3.7c1.7,0.7-2.9-2.6-6.4-4.8c0.4-0.5,0.7-1.1,1.1-1.6c6.3,5,16.4,12.6,14.4,9.5c-2.5-3.9-8.8-7.1-14-10.1
			c0.6-0.9,1.2-1.7,1.8-2.6c3.9,2.7,8.4,5.9,12,8.3c2.1,0,4,0.9,5.3,1.5c2.6,1.3,5.4,2.8,7.3,5.3c0.2,0.2,0.3,0.5,0.5,0.7
			c0.3,0.4,0.5,0.7,0.7,0.9c0.2,0.1,0.4,0.3,0.7,0.5c0.2,0.1,0.3,0.2,0.5,0.3c1.7,1,3,2.3,4.2,3.5c0.5,0.5,1.1,1,1.6,1.7
			c2.1-1.3,4.7-1.8,7-0.9c0.3,0.1,0.5,0.2,0.8,0.3c0.8,0.2,1.7,0.5,2.6,1.1c0.6-0.2,1.2-0.3,1.8-0.3c0.6,0,1.4,0,2.3,0.4
			c1.6,0.8,2.5,2.6,2.3,4.8c0,0.3-0.1,0.5-0.1,0.8c0,0.2-0.1,0.4-0.1,0.5c0.1,0.2,0.5,0.4,0.6,0.5l1.7,1.4l0,0
			c-0.2-2.6,1.1-5.3,3.5-7c1.8-1.3,4.1-2,6.7-2c0.2,0,0.3,0,0.5,0c0.4,0,0.9,0,1.1-0.1c0.2-0.1,0.5-0.8,0.7-1.3
			c0.5-1.1,1.2-2.5,2.6-3.5c0.8-0.5,1.6-0.8,2.3-1c0.2-0.1,0.4-0.1,0.6-0.2c0.8-0.3,1.6-1.1,1.8-1.9l0.7-2.4l0.7,0.2
			c0-0.6,0.1-1.3,0.5-1.9c0.1-0.2,0.3-0.5,0.5-0.7c-0.3-1.1-0.1-2.4,0.5-3.6c0.2-0.3,0.4-0.6,0.5-0.8c0.1-0.2,0.3-0.4,0.3-0.5
			c0.1-0.2,0-0.7,0-1c0-1,0-2.4,0.7-3.7c0.1-0.2,0.3-0.4,0.4-0.6c-0.5-0.8-0.6-1.8-0.3-2.7c0.2-0.7,0.5-1.3,1-1.8
			c-1-0.8-1.9-1.7-2.7-2.7c-1.8-2.2-1.6-4-1.2-5.1c0.5-1.3,1.7-2.3,3.2-2.7c-0.6-0.2-1.2-0.4-1.8-0.8c-0.9-0.6-1.6-1.3-1.9-2.2
			c-0.4-1-0.3-1.9-0.3-2.4c0.1-1.1,0.2-2.2,0.3-3.4c0.1-1,0.3-2,0.6-3c0.7-2,2.2-3.7,4.3-4.9c1.7-1,3.9-1.4,5.7-1.8l0.7-0.1
			l14.6,3.5c1.2,0.3,4.4,1,5.3,4.1c0,0.1,0,0.1,0,0.2c3.3,1.1,6.8,2.2,9.7,4.5c3.5,2.7,6,6.9,7.1,11.8c0.8,3.9,0.8,8.2-0.2,13.2
			l-0.1,0.3c-0.1,0.7-0.3,1.4-0.3,1.9c0,0.4,0.1,0.8,0.3,1.3c0.2-0.2,0.4-0.4,0.5-0.6c0.6-0.8,1.6-1.9,3.1-2.7c1.7-0.9,3.8-1,6-0.3
			c1.4,0.4,2.6,1.1,3.7,1.7l0.5,0.3c2.8,1.5,5.8,2.8,8.9,3.7c0.6,0.2,1.6,0.5,2.4,1.3c0.4,0.5,0.7,1,0.9,1.3c0,0.1,0.1,0.1,0.1,0.2
			c0.3,0.5,1.2,1,2,1.4c0.2,0.1,0.4,0.2,0.7,0.4c6.1,3.4,10.2,9.8,10.8,16.8c0,0.2,0,0.4,0,0.6c0.1,0.8,0.1,1.7,0.4,2.1
			c0.2,0.3,0.7,0.6,1.2,1c0.3,0.2,0.6,0.4,1,0.7c2.2,1.6,3.5,3.9,4.7,5.9c0.5,0.8,1.5,2.4,1,4.4c-0.5,2.1-2.4,3.1-3.1,3.5
			c-2.3,1.2-4.9,2.1-7.5,2.5c-0.1,0.4-0.1,0.8-0.2,1.2l3.5,1.5c0.4,0.1,1.2,0.5,1.8,1.4c0.4,0.6,0.5,1.2,0.5,1.7h0.1
			c0.9-0.1,2.1-0.2,3.4,0.3c2.4,1,3.2,3.4,3.7,4.9l0.1,0.4c0.3,0.9,0.7,1.7,1.2,2.5c0.1,0,0.2,0,0.2,0.1l0.3,0.1
			c2.3,0.5,4.1,1.7,5.2,3.3c0.9,1.3,1.2,2.8,1.4,4l3.8,19.7c0.6,2.9,0.7,5,0.9,7c-1.4,4-3.1,7.9-5,11.6c-1.2-6.5-24.7,2.5-26.7,3.2
			c-4.6,1.7,16.4,0.4,17,12.5c-0.8,1.1-1.6,2.1-2.5,3.2c-4.6,1.1-13.8,0.5-13.9,3.4c-0.1,1.9,1.8,4.4,4.4,6.9
			c-1.1,1.1-2.3,2.1-3.5,3.2c-7.7-5.9-15.3-13.3-22.8-19.3c-0.8-0.6-4.7,0.5-3.9,1c7.7,5.6,16.5,13.6,24.7,20c-1.2,1-2.5,2-3.8,3
			c-8.6-6.2-17-14.2-24.5-21.5c-0.6-0.6-4,1-3.4,1.5c8.2,7.6,16.8,15.4,25.4,21.8c-17.1,12-37.9,19.1-60.4,19.1
			C136.6,256.2,118.2,250.7,102.5,241.3z"/>
		<path class="st0" d="M178.9,152.1c0.6-0.7,1.2-1.4,1.8-2c1-1,2.2-1.7,3.5-2.4s2.9-0.8,2.9-2.5c-3.2-0.6-6.6,0.5-8.8,2.8
			c-1.7,1.8-2.6,4.1-3.2,6.5c-0.1,0.5-0.3,1-0.2,1.5c0.1,1,1,1.7,1.8,2.3c-0.4-1.1-0.2-2.3,0.3-3.4
			C177.4,153.9,178.1,153,178.9,152.1z"/>
		<path class="st0" d="M183.1,141.3c-2-0.3-4,0-5.8,1c-2.4,1.3-4.2,3.6-5.3,6.1c-0.2,0.5-0.5,1-0.5,1.6c-0.1,1.2,0.6,2.3,1.3,3.3
			c1-2.5,2.5-4.9,4.2-7c0.6-0.7,1.2-1.4,2-1.9c2.1-1.3,4.8-1,7.1-0.2c-0.3-0.1-0.6-2-1-2.3C184.5,141.4,183.6,141.4,183.1,141.3z"/>
		<path class="st0" d="M180.3,80.9c1.8,1.6,4.3,2.1,6.7,2.2c0.2,0,0.5,0,0.7-0.1c0.1-0.1,0.2-0.3,0.3-0.5c0.8-2.4,0.2-5.1-1.1-7.2
			s-3.1-3.9-4.9-5.7c-0.6-0.6-1.3-1.2-2.1-1.7c-1.8-0.9-2.3-0.3-2.3,1.4c0.1,1.7,0,3.4,0.2,5.1C177.9,76.8,178.6,79.3,180.3,80.9z"
			/>
		<path class="st0" d="M171.1,160.7c-6-1.3-9.5-4.8-14-9.2c-0.7-0.7-3.7,0.8-3.1,1.7c3.5,5.1,11,11,16.8,10.7
			C171.6,163.8,172,160.9,171.1,160.7z"/>
		<path class="st0" d="M166.6,83.9c0.5,0.5,1.6,0.7,2.2,1c0.8,0.4,1.6,0.7,2.4,1.1c1.6,0.8,3.1,1.6,4.7,2.5c3,1.8,6,3.7,8.8,5.9
			c1.6,1.2,3.1,2.5,4.6,3.8c-0.8-1.7-1.6-3.5-3.1-4.8c-0.8-0.7-1.8-1.3-2.8-1.8c-4.1-2.1-8.2-4.2-12.3-6.3
			C170.4,85,167.1,83.1,166.6,83.9z"/>
		<path class="st0" d="M150.8,155.8c-0.5-0.4-2.8,0.9-2.5,1.5c3.3,5.7,11.5,11,17.5,12.3c0.9,0.2,2.7-3.1,1.8-3.2
			C160.9,165.3,155.8,160.3,150.8,155.8z"/>
		<path class="st0" d="M181,84.1c-0.4,0.4-1.2,1.9-1.1,2.4c0.1,0.4,0.5,0.6,0.8,0.7c2.7,1.1,5.1,2.6,7.3,4.5c0-1.2,0.2-2.4,0.7-3.6
			c0.1-0.2,0.2-0.5,0.1-0.7c-0.1-0.2-0.3-0.3-0.5-0.4c-1.8-1-3.6-2.1-5.5-2.9C182.1,83.7,181.7,83.5,181,84.1z"/>
		<path class="st0" d="M170.9,123.3c0.1,0.3,0.3,0.6,0.6,0.9c0.4,0.3,0.8,0.4,1.3,0.4c0.3,0,0.7,0,0.9-0.3c0.1-0.2,0-0.5-0.1-0.7
			c-0.2-0.4-0.4-0.7-0.7-1c-0.4-0.5-1-1.7-1.9-1.5S170.7,122.7,170.9,123.3z"/>
		<path class="st0" d="M173.4,116c-1,0.4-0.4,2.9-0.1,3.8c0.1,0.5,0.3,1.1,0.6,1.4c0.4,0.5,0.9,0.6,1.4,0.7c0.4,0,0.8-0.1,1-0.6
			c0.1-0.4,0.1-0.9-0.1-1.3c-0.2-0.6-0.5-1.1-0.7-1.6C175,117.6,174.3,115.7,173.4,116z"/>
		<path class="st0" d="M173,96.3c-0.4-0.4-1.6-2.2-2.3-1.4c-0.3,0.3,0.6,2.3,0.6,3s-0.1,1.4-0.1,2.1c2.7-0.4,5.4-0.3,8.1-0.1
			c-0.7-0.7-1.5-1.3-2.5-1.8C175.5,97.5,174,97.3,173,96.3z"/>
		<path class="st0" d="M177.5,118.7c0.3,0,0.6-0.1,0.8-0.6c0.1-0.4,0-0.9-0.1-1.3c-0.2-0.6-0.4-1.1-0.6-1.6
			c-0.4-0.9-0.9-2.8-1.7-2.5c-0.8,0.4-0.3,2.9-0.1,3.8c0.1,0.5,0.3,1.1,0.5,1.4C176.7,118.5,177.1,118.6,177.5,118.7z"/>
		<path class="st0" d="M179.3,116.6c0.1,0.5,0.3,1.1,0.5,1.4c0.3,0.5,0.7,0.6,1.2,0.7c0.3,0,0.6-0.1,0.8-0.6c0.1-0.4,0-0.9-0.1-1.3
			c-0.2-0.6-0.4-1.1-0.6-1.6c-0.4-0.9-0.9-2.8-1.7-2.5C178.7,113.1,179.1,115.7,179.3,116.6z"/>
		<path class="st0" d="M223.6,113.2c0.7,0.4,1.5,0.7,2.3,0.6c0.3-1.1,0.1-2.2-0.4-3.2s-1.2-1.8-2-2.6c-0.4-0.4-0.9-0.7-1.4-0.9
			c-2.4-0.9-2,2.3-1.2,3.6C221.5,111.8,222.5,112.6,223.6,113.2z"/>
		<path class="st0" d="M250.2,188.8c-9.9,1.3-22.6,5.4-31.4,4.6c-0.6-0.1-1.2,2.5-0.5,2.5c7.3,0.5,22.7-2.1,32.1-2.9
			C251.4,192.9,251.2,188.7,250.2,188.8z"/>
		<path class="st0" d="M231.2,165.6c4.1,3.7-1.2,8.4,0.7,10.1c2.9,2.7,8.2-2.8,14.9,1.4c4.7,3-0.4-17.4-4.5-21
			C239.5,153.7,228.4,163.2,231.2,165.6z"/>
		<path class="st0" d="M221.1,188.8c11.9-0.9,20-2.3,29.5-3.3c0.8-0.1,0.2-3.5-0.6-3.3c-7.9,1.4-18.9,1.6-28.3,3.2
			C220.9,185.5,220.2,188.9,221.1,188.8z"/>
		<path class="st0" d="M208.3,151.8c7.4,7,12.7,13.9,15.5,20.2c0.3,0.6,2.2-0.8,2.1-1.4c-1.5-7.6-7.1-15.2-13.8-20.1
			C211.3,149.9,207.6,151.1,208.3,151.8z"/>
		<path class="st0" d="M202.4,115c0.2,0.1,0.4,0.1,0.6,0.2c3.5,0.3,7,0.7,10.5,1c0.2,0,0.5,0,0.7-0.1c0.4-0.3,0.2-1-0.1-1.4
			c-0.5-0.7-0.9-1.4-1.4-2.1c-0.1-0.1-0.2-0.2-0.3-0.3c-0.2-0.1-0.4-0.1-0.6-0.1c-2.3-0.1-4.5-0.2-6.8-0.4c-0.6,0-1.9-0.4-2.5,0
			s-0.4,1.6-0.4,2.2C202.1,114.4,202.1,114.8,202.4,115z"/>
		<path class="st0" d="M221,175.7c-2.9-6.5-10.3-15.7-16.6-20.7c-0.6-0.5-1.9,2.2-1.3,2.7c7,5.3,11.6,13.5,15,19.6
			C218.5,177.9,221.3,176.4,221,175.7z"/>
		<path class="st0" d="M223.2,140.4c-2-0.2-8.4,4.5-6.4,5.1c12.5,3.3,19.6,12.8,17.8,8.3C232.3,148,227.6,140.8,223.2,140.4z"/>
		<path class="st0" d="M212.3,107.3c0.4,0.6,0.8,1.1,1.2,1.6c0.5,0.5,1,0.9,1.5,1.3s0.9,0.7,1.4,1.1c0.3,0.2,0.9,0.4,1,0.1
			c0.1-0.2,0-0.4-0.1-0.5c-0.5-1-1-2-1.1-3.1c0-0.9,0.3-1.8,0.5-2.6c0.1-0.2,0.1-0.5,0-0.7c-0.1-0.1-0.2-0.2-0.3-0.2
			c-1.9-1-4.6-1.7-6.7-1.3c-0.2,0-0.4,0.1-0.4,0.3c0,0.1,0,0.1,0.1,0.2C210.4,104.6,211.3,106,212.3,107.3z"/>
		<path class="st0" d="M210.3,118.1c-1.2-0.1-2.5,0.1-3.7,0.3c4.1,0.7,7.9,1.9,11.8,3.3c4,1.4,8,2.7,11.5,4.9
			c1.1,0.6,2.1,1.4,3.3,1.8c-0.3-0.7-0.9-1.2-1.5-1.6c-4.7-3.8-10.7-5.7-16.5-7.5C213.6,118.8,212,118.3,210.3,118.1z"/>
		<path class="st0" d="M169.8,136.1c0,0.2,0.3,1.7,0.4,1.7c3-1,6.1-1.8,9.2-2.4c0.7-0.1,1.4-0.3,1.8-0.8c0.6-0.7,0.4-1.7,0.2-2.6
			c-0.1-0.2-0.1-0.5-0.4-0.6c-0.2-0.1-0.4,0-0.5,0.1c-2.1,0.7-4.3,1.5-6.4,2.2c-1.2,0.4-2.7,0.5-3.8,1
			C169.7,135,169.7,135.3,169.8,136.1z"/>
		<path class="st0" d="M221.5,115.2c-0.8,0.3-0.3,1.7-0.3,2.4c0,0.2,0,0.4,0.1,0.6c0.1,0.1,0.2,0.2,0.4,0.2c2.5,0.7,4.9,1.8,7.2,3.1
			c0.1-0.7,0.2-1.4,0.2-2.2c0-0.1,0-0.3,0-0.4s-0.1-0.2-0.2-0.2c-1.4-1.1-3-2.1-4.7-2.7C223.5,115.7,222.1,115,221.5,115.2z"/>
		<path class="st0" d="M221.9,137.5c0.6,0.3,1.3,0.7,1.9,1c0.1,0.1,0.3,0.1,0.5,0.1s0.3-0.2,0.4-0.4c0.6-1.1,1.2-2.4,0.9-3.7
			c-0.3-1-1.2-1.8-2-2.5c-1.3-1.2-2.4-2.6-3.4-4.1c-0.5-0.8-1.2-1.8-2.2-1.3c-0.9,0.4-1.5,1.4-2.5,1.8c-0.9,0.4-2,0.6-2.4,1.5
			c-0.5,0.8-0.2,1.8,0.3,2.5c0.6,0.7,1.4,1.1,2.2,1.6C217.7,135.2,219.8,136.3,221.9,137.5z"/>
		<path class="st0" d="M97.7,117.1c0.8-0.2,1.2-1.2,1.4-2c0.2-1,0.4-2,0.5-3c0.1-0.7,0-2.6-1.2-2.2c-0.6,0.2-0.8,2.1-1.1,2.7
			c-0.5,0.9-1.1,1.8-1.5,2.8c-0.1,0.3-0.2,0.6-0.1,0.9c0.1,0.1,0.2,0.2,0.3,0.3C96.5,117,97.1,117.3,97.7,117.1z"/>
		<path class="st0" d="M68.5,102c-3.4,0.7,15.8,7.9,15.8,7.9S71.3,101.5,68.5,102z"/>
		<path class="st0" d="M102.1,114.3c-0.1-0.6-0.7-1.8-1.4-1.1c-0.3,0.3-0.2,2.2-0.3,2.8c-0.4,1.9-1.3,3.6-2.7,5
			c-0.4,0.4-0.8,0.8-1,1.3c-0.3,0.5-0.3,1.1,0,1.5c2.6-1.7,4.6-4.4,5.3-7.4C102.1,115.8,102.2,115,102.1,114.3z"/>
		<path class="st0" d="M146,206.8c1.1-0.2,2.4-3,1.3-2.9c-12.4,0.6-40.9-14.4-58.8-26.3c-0.8-0.5-1.7,3.3-0.8,3.8
			C105.3,192.2,133.2,208.7,146,206.8z"/>
		<path class="st0" d="M75.6,103.4c-2.5-0.4,11.4,5.7,9.3,4.2C81.9,105.4,78.8,103.9,75.6,103.4z"/>
		<path class="st0" d="M92,114.3c-1-0.6-2.5-2.1-3.6-2.3c-1.6-0.3-0.8,1.3,0,1.9c1.2,0.9,2.5,1.7,4,2.2c0.2,0.1,0.5,0.1,0.7-0.1
			c0.1-0.1,0.1-0.2,0.1-0.3C93.1,115.1,92.5,114.7,92,114.3z"/>
		<path class="st0" d="M93,106c-0.7-0.5-2.3-2.6-3.3-2.2c-0.8,0.3-0.9,3-1.4,3.8c-0.2,0.4-0.4,0.8-0.2,1.2c0.1,0.2,0.3,0.3,0.5,0.3
			c0.7,0.3,1.3,0.7,1.9,1.1c0.8,0.7,1.5,1.6,2.4,2.1c0.4,0.2,0.8,0.3,1.2,0.3c0.5-0.1,0.9-0.6,1.1-1.1s0.2-1,0.2-1.6
			c0-0.5,0-1.1-0.2-1.5C94.9,107.3,93.9,106.7,93,106z"/>
		<path class="st0" d="M193.3,145.7l-1.3-2.2l0.8-0.5c-0.8-0.7-1.4-1.6-1.8-2.6c-0.6-1.7-0.5-3.4-0.4-4.7l0.4-3.9c0,0,0-0.1-0.1-0.1
			c-1-1.6-1.3-3.5-0.9-5.3c-0.9-0.4-1.9-1-2.7-1.8c-2.3-2.2-2.9-5.5-1.6-7.9c0.6-1.1,1.5-1.8,2.4-2.4l-0.1-0.1
			c-1.3-1.3-2.2-3.3-2.4-5.6v-0.1c-0.3,0.5-0.5,1-0.8,1.5c-0.7,1.3-1.4,2.6-1.4,3.6c0,0.4,0.1,0.9,0.2,1.4c0,0.2,0.1,0.5,0.1,0.7
			c0.2,1.3,0.3,2.7,0.4,3.9c0.1,3.8,0,7.7-0.3,11.7c0.8,0.9,1.4,2.1,2,3.2c0.6,1.2,3,10,4.4,10c0.9,1,2.1,1.7,3.4,2.2
			C193.6,146.3,193.5,145.9,193.3,145.7z"/>
		<path class="st0" d="M143.8,210.8c-18.3-2.8-35.4-11.4-56.2-24.6c-0.7-0.5-1.6,2.7-0.9,3.3c13.7,11,41.5,25,55,24.3
			C142.6,213.7,144.7,210.9,143.8,210.8z"/>
		<path class="st0" d="M188.2,178.7c-1-0.7-1.4-2.3-1.9-3.5c-1.7-3.6-6.6-4.3-9.1-7.4c-0.5-0.6-0.8-1.2-1.1-1.8
			c-3.8,6.2-10.7,16.5-11.3,16.2c-2.8,3.2-5.9,6.2-9.1,8.9c-0.1,0.3-0.1,1.3,0,1.9c0,0.7,0.1,1.4,0,2.1c-0.1,1.7-0.6,3.2-1.1,4.6
			c-1.6,4.7-3.4,9.9-6.8,14.3l-0.1,0.1c-0.1,0.2-0.3,0.4-0.3,0.5c0,0,0,0.1,0,0.2c0,0.4,0.2,1.1,0.4,1.7c0.3,0.9,0.6,1.9,0.6,3
			c0,0.7,0,1.2-0.1,1.8c0,0.4-0.1,1,0,1.1c0,0.1,0.3,0.4,0.5,0.7c0.4,0.5,0.9,1.1,1.2,1.8c0.8,1.8,0.5,3.6,0.3,5
			c-0.1,0.3-0.1,0.6-0.1,0.9c-0.2,1.5,0.1,3.1,1,5c0.5-2.7,1.6-5.9,4.1-8.3c1.4-1.3,3.1-2.3,4.5-3.2l9.2-5.5c0,0,0,0,0.1,0
			c-0.1-0.3-0.1-0.7,0-1.1c0.1-1,0.6-1.9,1.5-2.6c1.5-1.2,3.6-1,4.4-0.8c2.8,0.5,5.4,0.9,7.6,0.2c0.1,0,0.2-0.1,0.4-0.1
			c0.4-0.1,0.9-0.3,1.4-0.4c0.2-1.1,1.1-2.7,3.9-3.5l1.6-0.4C187.7,209.2,187.7,191.1,188.2,178.7z"/>
		<path class="st0" d="M158.9,231.6c-0.6,3.4,7.4,10.5,10.6,9.1c3.4-1.6-4.2-6.4,3.2-14.5C175.3,223.5,159.6,228,158.9,231.6z"/>
		<path class="st0" d="M137.1,217.3c-4.8-0.1-4.9,7.9-3.7,12.6c1.8,6.8,17.4,20.6,14.3,14.3C142.6,233.9,146,217.6,137.1,217.3z"/>
		<path class="st0" d="M151.5,113.5c9.3,3.9,8.1,15.2,13.2,14.9c3.3-0.2,2.1-6.9,2.7-10.1c0.6-3.8,6.3-11.3-1-12.1
			C162.2,105.7,147.7,112,151.5,113.5z"/>
		<path class="st0" d="M151,149.5c0.1,1.1,3.5-1.3,3.7-2.4c1.4-7.8-5.4-22.2-12.4-26.1c-0.9-0.5-4.7,0.8-4,1.6
			C146,130.3,149.3,134.5,151,149.5z"/>
		<path class="st0" d="M158.2,144.2c0.1,1,3.4-1.5,3.3-2.5c-1.5-9.8-6.8-18.4-12.7-22.9c-0.5-0.4-3,0.8-2.4,1.3
			C153.4,126.5,157.4,135.2,158.2,144.2z"/>
		<path class="st0" d="M106.2,178.7c-10-0.9,27.1,21.2,36.4,17.2c5.8-2.5,11.7-16.3,7.8-22.1C143.6,163.5,141.5,182,106.2,178.7z"/>
		<path class="st0" d="M163.3,75.2c-0.5,0.4-0.7,1-0.8,1.6c-0.1,1.2,0.2,1.3,1.2,1.7c1.7,0.6,3.1,1.4,4.7,2.4c0.8,0.5,1.5,1,2.3,1.4
			c0.5,0.2,2,0.6,2.3,0.9c-1.7-2.4-3.5-4.7-5.4-6.9C166.7,75.3,164.5,74.4,163.3,75.2z"/>
		<path class="st0" d="M171.1,62.9c-2.8-1.3-6.7-2.2-12.1-3.1c8.7,3,6.4,4.3,12.6,7.1C172.2,66.2,171.9,63.4,171.1,62.9z"/>
		<path class="st0" d="M117.3,128.8c-1.2,1.3-2.4,2.7-3.1,4.4c-0.5,1.2-0.8,2.5-1,3.8c-0.3,2.2-0.4,4.4,0.2,6.5
			c0.5,2.1,1.7,4.1,3.4,5.4c-0.8-2.9-1.6-6-1.4-9c0.3-6.3,4.8-12.1,10.8-14c0.1,0-0.7-0.8-0.8-0.8c-0.4-0.2-0.9-0.2-1.4-0.2
			c-1.1,0-2.2,0.4-3.2,0.9C119.5,126.6,118.3,127.7,117.3,128.8z"/>
		<path class="st0" d="M104.7,120.3c0.6-1.1,1.4-2.2,2.4-3c0.5-0.4,1-0.7,1.5-1c0.4-0.2,1.5-0.5,1.6-0.9c0.4-1.1-1.7-0.9-2.2-0.7
			c-1.4,0.6-2.7,1.5-3.6,2.8c-1.3,1.8-1.8,4.2-1.1,6.3C103.1,123,104.4,121,104.7,120.3z"/>
		<path class="st0" d="M71.9,106.2c3.3,1.9,10.4,6.8,8.7,4.7C77.9,107.7,69.7,105,71.9,106.2z"/>
		<path class="st0" d="M73.6,99.1c-4.1,0.1,11.3,6.5,11.3,6.5S76.9,99,73.6,99.1z"/>
		<path class="st0" d="M111.3,138.7c0-2.5,0.4-4.9,1.1-7.3c0.4-1.2,0.8-2.3,1.6-3.3c0.9-1.1,2.2-1.8,3.5-2.4c1.6-0.7,3.3-1.3,5-1.8
			c0.2,0-0.7-1.3-0.8-1.4c-0.5-0.4-0.9-0.5-1.4-0.6c-1.2-0.1-2.6,0.2-3.8,0.6c-2.4,0.8-4.5,2.5-5.7,4.7
			C108.7,130.7,109,135.4,111.3,138.7z"/>
		<path class="st0" d="M112.9,118.6c0.1,0.1,0.3,0.2,0.5,0.3c0.6,0.3,1.1,0.5,1.7,0.8c0.1,0,0.2,0.1,0.3,0.1c0.2,0,0.3-0.3,0.3-0.5
			c0.1-1,0.1-2.1-0.7-2.7c-0.3-0.2-0.6-0.3-0.9-0.5c-0.2-0.2-0.4-0.4-0.7-0.6c-0.5-0.4-2.2-1.4-2.3-0.3c0,0.6,1.2,2,1.4,2.7
			C112.6,118.1,112.7,118.4,112.9,118.6z"/>
	</g>
</g>
<g>
	<path class="st0" d="M671.2,171.5c0,8.4-6.9,15.2-15.7,15.2c-8.9,0-15.8-6.8-15.8-15.2c0-8.5,6.9-15.3,15.8-15.3
		C664.3,156.2,671.2,163,671.2,171.5z M667.9,171.5c0-6.9-5.4-12.3-12.4-12.3c-7.1,0-12.5,5.4-12.5,12.3c0,6.8,5.4,12.1,12.5,12.1
		C662.5,183.6,667.9,178.3,667.9,171.5z M661.8,176.9c0.1,1.1,0.3,1.7,0.8,2.5h-3c-0.4-0.6-0.6-1.4-0.6-2.5l-0.1-1.7
		c-0.1-1.7-0.9-2.4-2.8-2.4h-3.7v6.5h-2.9v-16.2h7c3.4,0,5.7,1.2,5.7,4.2c0,1.9-1,3.3-3.7,4v0.4c2.2,0.3,3.1,0.8,3.3,2.9
		L661.8,176.9z M659,168c0-1.5-1-2.3-2.7-2.3h-4v4.6h3.6C658.1,170.3,659,169.5,659,168z"/>
</g>
</svg>
